<svg width="21" height="15" viewBox="0 0 21 15" fill="none" xmlns="http://www.w3.org/2000/svg">
<path d="M20.4996 1.42971C20.4996 0.744751 19.9459 0.19104 19.2609 0.19104H1.69393C1.00897 0.19104 0.455261 0.744751 0.455261 1.42971V13.5703C0.455261 14.2553 1.00897 14.809 1.69393 14.809H19.3019C19.9869 14.809 20.5406 14.2553 20.4996 13.5252V1.42971ZM19.6875 5.62151H1.31249V4.38284H19.6875V5.62151ZM1.26737 1.47483C1.26737 1.21643 1.48065 1.04827 1.69393 1.04827V1.00725H19.2609C19.5193 1.00725 19.6875 1.22053 19.6875 1.43381V3.57073H1.26737V1.47483ZM19.6875 13.5703C19.6875 13.8287 19.4742 13.9969 19.2609 13.9969H1.69393C1.43553 13.9969 1.26737 13.7836 1.26737 13.5703V6.47463H19.6875V13.5703Z" fill="#134E88"/>
</svg>
