<svg width="24" height="24" viewBox="0 0 24 24" fill="none" xmlns="http://www.w3.org/2000/svg">
<path d="M19.5 3.375H16.875V2.25C16.875 2.15054 16.8355 2.05516 16.7652 1.98484C16.6948 1.91451 16.5995 1.875 16.5 1.875C16.4005 1.875 16.3052 1.91451 16.2348 1.98484C16.1645 2.05516 16.125 2.15054 16.125 2.25V3.375H7.875V2.25C7.875 2.15054 7.83549 2.05516 7.76517 1.98484C7.69484 1.91451 7.59946 1.875 7.5 1.875C7.40054 1.875 7.30516 1.91451 7.23483 1.98484C7.16451 2.05516 7.125 2.15054 7.125 2.25V3.375H4.5C4.20173 3.37533 3.91578 3.49397 3.70487 3.70487C3.49397 3.91578 3.37533 4.20173 3.375 4.5V19.5C3.37533 19.7983 3.49397 20.0842 3.70487 20.2951C3.91578 20.506 4.20173 20.6247 4.5 20.625H19.5C19.7983 20.6247 20.0842 20.506 20.2951 20.2951C20.506 20.0842 20.6247 19.7983 20.625 19.5V4.5C20.6247 4.20173 20.506 3.91578 20.2951 3.70487C20.0842 3.49397 19.7983 3.37533 19.5 3.375ZM4.5 4.125H7.125V5.25C7.125 5.34946 7.16451 5.44484 7.23483 5.51516C7.30516 5.58549 7.40054 5.625 7.5 5.625C7.59946 5.625 7.69484 5.58549 7.76517 5.51516C7.83549 5.44484 7.875 5.34946 7.875 5.25V4.125H16.125V5.25C16.125 5.34946 16.1645 5.44484 16.2348 5.51516C16.3052 5.58549 16.4005 5.625 16.5 5.625C16.5995 5.625 16.6948 5.58549 16.7652 5.51516C16.8355 5.44484 16.875 5.34946 16.875 5.25V4.125H19.5C19.5994 4.12511 19.6947 4.16465 19.765 4.23495C19.8354 4.30526 19.8749 4.40058 19.875 4.5V7.875H4.125V4.5C4.12511 4.40058 4.16465 4.30526 4.23495 4.23495C4.30526 4.16465 4.40058 4.12511 4.5 4.125ZM19.5 19.875H4.5C4.40058 19.8749 4.30526 19.8354 4.23495 19.765C4.16465 19.6947 4.12511 19.5994 4.125 19.5V8.625H19.875V19.5C19.8749 19.5994 19.8354 19.6947 19.765 19.765C19.6947 19.8354 19.5994 19.8749 19.5 19.875Z" fill="#134E88"/>
</svg>
