<svg width="21" height="21" viewBox="0 0 21 21" fill="none" xmlns="http://www.w3.org/2000/svg">
<path d="M10.5 4.2C11.585 4.2 12.4698 4.7502 13.0662 5.446C13.6626 6.1446 14 6.9825 14 7.7V9.45C14 9.9169 13.7662 10.2564 13.5912 10.5189C13.4162 10.7814 13.3 10.9669 13.3 11.2V11.9C13.3 12.327 13.3434 12.7218 13.8236 12.9962L16.2736 14.3962C16.8336 14.7161 17.164 15.0262 17.3362 15.3874C17.507 15.7486 17.5 16.1014 17.5 16.45C17.5 16.919 16.8 16.912 16.8 16.45C16.8 16.1 16.7944 15.8774 16.7041 15.6884C16.6145 15.4994 16.4199 15.2859 15.9271 15.0038L13.4771 13.6038C12.7309 13.1782 12.6 12.4138 12.6 11.9V11.2C12.6 10.7331 12.8338 10.3936 13.0088 10.1311C13.1838 9.8686 13.3 9.6831 13.3 9.45V7.7C13.3 7.217 13.0291 6.4799 12.5342 5.9024C12.04 5.3242 11.3512 4.9 10.5 4.9C9.6495 4.9 8.96 5.3242 8.4658 5.9024C7.9709 6.4799 7.7 7.2184 7.7 7.7V9.45C7.7 9.6831 7.8162 9.8686 7.9912 10.1311C8.1662 10.3936 8.4 10.7331 8.4 11.2V11.9C8.4 12.4145 8.2684 13.1782 7.5236 13.6038L5.0736 15.0038C4.5801 15.2859 4.3855 15.4994 4.2966 15.6884C4.2056 15.8774 4.2 16.0993 4.2 16.45C4.2 16.919 3.5 16.9204 3.5 16.45C3.5 16.1 3.493 15.7486 3.6638 15.3874C3.836 15.0269 4.1678 14.7154 4.7264 14.3962L7.1764 12.9962C7.6566 12.7218 7.7 12.327 7.7 11.9V11.2C7.7 10.9669 7.5838 10.7814 7.4088 10.5189C7.2338 10.2564 7 9.9169 7 9.45V7.7C7 6.9818 7.3374 6.1439 7.9338 5.446C8.5302 4.7509 9.415 4.2 10.5 4.2ZM10.5 0C16.2946 0 21 4.7054 21 10.5C21 16.2946 16.2946 21 10.5 21C4.7054 21 0 16.2946 0 10.5C0 4.7054 4.7054 0 10.5 0ZM10.5 0.7C5.0834 0.7 0.700001 5.0834 0.700001 10.5C0.700001 15.9166 5.0834 20.3 10.5 20.3C15.9166 20.3 20.3 15.9166 20.3 10.5C20.3 5.0834 15.9166 0.7 10.5 0.7Z" fill="#134E88"/>
</svg>
